ffmpeg started on 2016-12-05 at 04:38:36
Report written to "Output/x264/results/ffmpeg/sintelveryfast8000k.log"
Command line:
Tools/ffmpeg/ffmpeg -benchmark -y -i Input/y4m/sintel.y4m -c:v libx264 -preset veryfast -b:v 8000k -an Output/x264/encoded/sintelveryfast8000k.mkv
ffmpeg version N-82227-gdb23fde Copyright (c) 2000-2016 the FFmpeg developers
  built with gcc 5.4.0 (Ubuntu 5.4.0-6ubuntu1~16.04.2) 20160609
  configuration: --prefix=/home/jaroslav/ffmpeg_build --pkg-config-flags=--static --extra-cflags=-I/home/jaroslav/ffmpeg_build/include --extra-ldflags=-L/home/jaroslav/ffmpeg_build/lib --bindir=/home/jaroslav/bin --enable-gpl --enable-libass --enable-libfdk-aac --enable-libfreetype --enable-libmp3lame --enable-libopus --enable-libtheora --enable-libvorbis --enable-libvpx --enable-libx264 --enable-libx265 --enable-nvenc --enable-libmfx --enable-libxvid --enable-libgsm --enable-libopencore-amrnb --enable-version3 --enable-nonfree
  libavutil      55. 35.100 / 55. 35.100
  libavcodec     57. 66.101 / 57. 66.101
  libavformat    57. 57.100 / 57. 57.100
  libavdevice    57.  2.100 / 57.  2.100
  libavfilter     6. 66.100 /  6. 66.100
  libswscale      4.  3.100 /  4.  3.100
  libswresample   2.  4.100 /  2.  4.100
  libpostproc    54.  2.100 / 54.  2.100
Input #0, yuv4mpegpipe, from 'Input/y4m/sintel.y4m':
  Duration: 00:00:20.83, start: 0.000000, bitrate: 2057307 kb/s
    Stream #0:0: Video: rawvideo (I420 / 0x30323449), yuv420p(progressive), 4096x1744, SAR 1:1 DAR 256:109, 24 fps, 24 tbr, 24 tbn, 24 tbc
[libx264 @ 0x32291c0] using SAR=1/1
[libx264 @ 0x32291c0] using cpu capabilities: MMX2 SSE2Fast SSSE3 SSE4.2 AVX FMA3 AVX2 LZCNT BMI2
[libx264 @ 0x32291c0] profile High, level 5.1
[libx264 @ 0x32291c0] 264 - core 148 - H.264/MPEG-4 AVC codec - Copyleft 2003-2016 - http://www.videolan.org/x264.html - options: cabac=1 ref=1 deblock=1:0:0 analyse=0x3:0x113 me=hex subme=2 psy=1 psy_rd=1.00:0.00 mixed_ref=0 me_range=16 chroma_me=1 trellis=0 8x8dct=1 cqm=0 deadzone=21,11 fast_pskip=1 chroma_qp_offset=0 threads=6 lookahead_threads=2 sliced_threads=0 nr=0 decimate=1 interlaced=0 bluray_compat=0 constrained_intra=0 bframes=3 b_pyramid=2 b_adapt=1 b_bias=0 direct=1 weightb=1 open_gop=0 weightp=1 keyint=250 keyint_min=24 scenecut=40 intra_refresh=0 rc_lookahead=10 rc=abr mbtree=1 bitrate=8000 ratetol=1.0 qcomp=0.60 qpmin=0 qpmax=69 qpstep=4 ip_ratio=1.40 aq=1:1.00
Output #0, matroska, to 'Output/x264/encoded/sintelveryfast8000k.mkv':
  Metadata:
    encoder         : Lavf57.57.100
    Stream #0:0: Video: h264 (libx264) (H264 / 0x34363248), yuv420p, 4096x1744 [SAR 1:1 DAR 256:109], q=-1--1, 8000 kb/s, 24 fps, 1k tbn, 24 tbc
    Metadata:
      encoder         : Lavc57.66.101 libx264
    Side data:
      cpb: bitrate max/min/avg: 0/0/8000000 buffer size: 0 vbv_delay: -1
Stream mapping:
  Stream #0:0 -> #0:0 (rawvideo (native) -> h264 (libx264))
Press [q] to stop, [?] for help
frame=   14 fps=0.0 q=0.0 size=       0kB time=00:00:00.00 bitrate=N/A speed=   0x    frame=   22 fps= 20 q=26.0 size=       1kB time=-00:00:00.04 bitrate=N/A speed=N/A    frame=   26 fps= 16 q=43.0 size=       1kB time=00:00:00.12 bitrate=  46.5kbits/s speed=0.0781x    frame=   33 fps= 16 q=44.0 size=       1kB time=00:00:00.41 bitrate=  14.0kbits/s speed=0.197x    frame=   45 fps= 17 q=42.0 size=       1kB time=00:00:00.91 bitrate=   6.4kbits/s speed=0.347x    frame=   57 fps= 18 q=41.0 size=       1kB time=00:00:01.41 bitrate=   4.1kbits/s speed=0.449x    frame=   68 fps= 18 q=40.0 size=       1kB time=00:00:01.87 bitrate=   3.1kbits/s speed=0.51x    frame=   78 fps= 19 q=39.0 size=       1kB time=00:00:02.29 bitrate=   2.6kbits/s speed=0.549x    frame=   88 fps= 19 q=39.0 size=       1kB time=00:00:02.70 bitrate=   2.2kbits/s speed=0.578x    frame=   89 fps= 11 q=39.0 size=       1kB time=00:00:02.75 bitrate=   2.1kbits/s speed=0.348x    frame=   90 fps=8.2 q=39.0 size=       1kB time=00:00:02.79 bitrate=   2.1kbits/s speed=0.254x    frame=   91 fps=7.4 q=39.0 size=       1kB time=00:00:02.83 bitrate=   2.1kbits/s speed=0.232x    frame=  103 fps=8.1 q=39.0 size=       1kB time=00:00:03.33 bitrate=   1.8kbits/s speed=0.261x    frame=  112 fps=8.4 q=38.0 size=       1kB time=00:00:03.70 bitrate=   1.6kbits/s speed=0.279x    frame=  126 fps=9.1 q=38.0 size=    4379kB time=00:00:04.29 bitrate=8356.6kbits/s speed=0.31x    frame=  138 fps=9.6 q=37.0 size=    4379kB time=00:00:04.79 bitrate=7484.8kbits/s speed=0.334x    frame=  149 fps= 10 q=37.0 size=    4379kB time=00:00:05.25 bitrate=6832.0kbits/s speed=0.353x    frame=  160 fps= 10 q=37.0 size=    4379kB time=00:00:05.70 bitrate=6283.9kbits/s speed=0.371x    frame=  172 fps= 11 q=34.0 size=    4379kB time=00:00:06.20 bitrate=5777.9kbits/s speed=0.39x    frame=  184 fps= 11 q=37.0 size=    6359kB time=00:00:06.70 bitrate=7764.4kbits/s speed=0.408x    frame=  196 fps= 12 q=36.0 size=    6359kB time=00:00:07.20 bitrate=7225.9kbits/s speed=0.425x    frame=  206 fps= 12 q=36.0 size=    7206kB time=00:00:07.62 bitrate=7741.0kbits/s speed=0.436x    frame=  218 fps= 12 q=36.0 size=    7206kB time=00:00:08.12 bitrate=7264.6kbits/s speed=0.451x    frame=  229 fps= 12 q=36.0 size=    7206kB time=00:00:08.58 bitrate=6877.0kbits/s speed=0.464x    frame=  240 fps= 13 q=35.0 size=    7206kB time=00:00:09.04 bitrate=6528.0kbits/s speed=0.476x    frame=  253 fps= 13 q=35.0 size=    7206kB time=00:00:09.58 bitrate=6159.5kbits/s speed=0.49x    frame=  265 fps= 13 q=35.0 size=    7206kB time=00:00:10.08 bitrate=5854.1kbits/s speed=0.503x    frame=  277 fps= 13 q=35.0 size=    7206kB time=00:00:10.58 bitrate=5577.5kbits/s speed=0.515x    frame=  290 fps= 14 q=34.0 size=    9791kB time=00:00:11.12 bitrate=7209.3kbits/s speed=0.528x    frame=  299 fps= 14 q=34.0 size=    9791kB time=00:00:11.50 bitrate=6974.2kbits/s speed=0.533x    frame=  310 fps= 14 q=34.0 size=    9791kB time=00:00:11.95 bitrate=6707.1kbits/s speed=0.541x    frame=  326 fps= 14 q=33.0 size=    9791kB time=00:00:12.62 bitrate=6352.8kbits/s speed=0.559x    frame=  343 fps= 15 q=32.0 size=    9791kB time=00:00:13.33 bitrate=6015.5kbits/s speed=0.576x    frame=  360 fps= 15 q=32.0 size=    9791kB time=00:00:14.04 bitrate=5711.8kbits/s speed=0.594x    frame=  375 fps= 16 q=31.0 size=    9791kB time=00:00:14.66 bitrate=5468.4kbits/s speed=0.607x    frame=  387 fps= 16 q=30.0 size=   12067kB time=00:00:15.16 bitrate=6517.1kbits/s speed=0.615x    frame=  399 fps= 16 q=30.0 size=   12067kB time=00:00:15.66 bitrate=6309.2kbits/s speed=0.622x    frame=  411 fps= 16 q=30.0 size=   12067kB time=00:00:16.16 bitrate=6114.1kbits/s speed=0.627x    frame=  424 fps= 16 q=31.0 size=   12067kB time=00:00:16.70 bitrate=5916.1kbits/s speed=0.635x    frame=  435 fps= 16 q=31.0 size=   12067kB time=00:00:17.16 bitrate=5757.9kbits/s speed=0.64x    frame=  449 fps= 16 q=31.0 size=   14418kB time=00:00:17.75 bitrate=6653.7kbits/s speed=0.649x    frame=  462 fps= 17 q=31.0 size=   14418kB time=00:00:18.29 bitrate=6456.6kbits/s speed=0.656x    frame=  472 fps= 17 q=31.0 size=   14418kB time=00:00:18.70 bitrate=6313.0kbits/s speed=0.658x    frame=  479 fps= 17 q=30.0 size=   14418kB time=00:00:19.00 bitrate=6216.0kbits/s speed=0.656x    frame=  491 fps= 17 q=30.0 size=   14418kB time=00:00:19.50 bitrate=6056.6kbits/s speed=0.661x    frame=  500 fps= 17 q=-1.0 Lsize=   17613kB time=00:00:20.70 bitrate=6967.2kbits/s speed=0.687x    
video:17608kB audio:0kB subtitle:0kB other streams:0kB global headers:0kB muxing overhead: 0.027226%
bench: utime=74.516s
bench: maxrss=926224kB
[libx264 @ 0x32291c0] frame I:8     Avg QP:25.74  size:129728
[libx264 @ 0x32291c0] frame P:284   Avg QP:30.84  size: 44050
[libx264 @ 0x32291c0] frame B:208   Avg QP:28.63  size: 21547
[libx264 @ 0x32291c0] consecutive B-frames: 41.2%  8.0%  6.0% 44.8%
[libx264 @ 0x32291c0] mb I  I16..4: 35.6% 57.3%  7.1%
[libx264 @ 0x32291c0] mb P  I16..4: 18.2% 20.2%  0.2%  P16..4: 12.8%  4.7%  1.1%  0.0%  0.0%    skip:42.8%
[libx264 @ 0x32291c0] mb B  I16..4:  2.8%  2.1%  0.1%  B16..8: 11.2%  2.9%  0.2%  direct: 2.4%  skip:78.3%  L0:41.8% L1:49.4% BI: 8.7%
[libx264 @ 0x32291c0] final ratefactor: 27.95
[libx264 @ 0x32291c0] 8x8 transform intra:51.8% inter:59.8%
[libx264 @ 0x32291c0] coded y,uvDC,uvAC intra: 17.5% 15.1% 0.9% inter: 3.0% 4.3% 0.0%
[libx264 @ 0x32291c0] i16 v,h,dc,p: 46% 28% 14% 12%
[libx264 @ 0x32291c0] i8 v,h,dc,ddl,ddr,vr,hd,vl,hu: 18% 25% 41%  3%  2%  2%  3%  2%  3%
[libx264 @ 0x32291c0] i4 v,h,dc,ddl,ddr,vr,hd,vl,hu: 18% 25% 12%  8%  8%  6%  9%  5%  9%
[libx264 @ 0x32291c0] i8c dc,h,v,p: 73% 13% 13%  1%
[libx264 @ 0x32291c0] Weighted P-Frames: Y:0.4% UV:0.0%
[libx264 @ 0x32291c0] kb/s:6923.44
